<svg xmlns="http://www.w3.org/2000/svg" xmlns:xlink="http://www.w3.org/1999/xlink" viewBox="0 0 9233.51 7706.19"><defs><linearGradient id="a" x1="7788.1" x2="6607.83" y1="5990.47" y2="5449.1" gradientUnits="userSpaceOnUse"><stop offset="0.12" stop-color="#0066b2"/><stop offset="0.28" stop-color="#006eb7"/><stop offset="0.52" stop-color="#0083c6"/><stop offset="0.8" stop-color="#00a5de"/><stop offset="1" stop-color="#00c1f2"/></linearGradient><linearGradient xlink:href="#a" id="f" x1="6779.45" x2="6384.52" y1="6965.27" y2="6784.12"/><linearGradient xlink:href="#a" id="g" x1="7709.66" x2="6790.72" y1="7146.28" y2="6724.78"/><linearGradient xlink:href="#a" id="h" x1="6459.89" x2="5310.18" y1="5585.3" y2="5057.94"/><linearGradient id="i" x1="6538.08" x2="6906.23" y1="5279.47" y2="6423.55" gradientUnits="userSpaceOnUse"><stop offset="0.12" stop-color="#ffca02"/><stop offset="0.48" stop-color="#fec207"/><stop offset="1" stop-color="#fbae16"/></linearGradient><linearGradient xlink:href="#a" id="j" x1="1964.66" x2="1561.31" y1="6961.91" y2="6776.9"/><linearGradient xlink:href="#a" id="k" x1="3016.04" x2="2287.16" y1="7008.39" y2="6674.06"/><linearGradient xlink:href="#a" id="l" x1="1949.37" x2="1190.39" y1="5963.63" y2="5615.5"/><linearGradient xlink:href="#a" id="m" x1="3563.14" x2="2548.09" y1="5492.7" y2="5027.11"/><linearGradient id="n" x1="2728.34" x2="2051.54" y1="6335.56" y2="5758.62" gradientUnits="userSpaceOnUse"><stop offset="0" stop-color="#36b34a"/><stop offset="0.6" stop-color="#90cc51"/><stop offset="1" stop-color="#c8db55"/></linearGradient><linearGradient xlink:href="#a" id="o" x1="1804.66" x2="1117.93" y1="771.33" y2="290.64"/><linearGradient id="p" x1="2437.94" x2="1343.22" y1="2008.23" y2="1632.43" gradientUnits="userSpaceOnUse"><stop offset="0" stop-color="#00ad4c"/><stop offset="0.45" stop-color="#54bf3f"/><stop offset="1" stop-color="#bed62f"/></linearGradient><linearGradient xlink:href="#a" id="q" x1="2916.91" x2="238.17" y1="4063.76" y2="2835.05"/><linearGradient id="b" x1="3154.79" x2="2282.79" y1="5714.26" y2="3985.81" gradientUnits="userSpaceOnUse"><stop offset="0" stop-color="#54b847"/><stop offset="0.3" stop-color="#81c53c"/><stop offset="0.61" stop-color="#a8d032"/><stop offset="0.85" stop-color="#c0d72c"/><stop offset="1" stop-color="#c9da2a"/></linearGradient><linearGradient xlink:href="#b" id="r" x1="4786.7" x2="2564.87" y1="3228.3" y2="2465.57"/><linearGradient xlink:href="#b" id="s" x1="2574.19" x2="1702.21" y1="6007.08" y2="4278.69"/><linearGradient xlink:href="#b" id="t" x1="3625.55" x2="2753.63" y1="5476.55" y2="3748.27"/><linearGradient id="c" x1="7765.19" x2="7155.88" y1="770.05" y2="490.57" gradientUnits="userSpaceOnUse"><stop offset="0.12" stop-color="#007fc5"/><stop offset="0.32" stop-color="#0087ca"/><stop offset="0.62" stop-color="#009cd9"/><stop offset="0.98" stop-color="#00bef1"/><stop offset="1" stop-color="#00c0f2"/></linearGradient><linearGradient xlink:href="#c" id="u" x1="8649.32" x2="8168.9" y1="992.33" y2="771.96"/><linearGradient id="v" x1="6969.23" x2="8627.53" y1="1236.67" y2="2271.21" gradientUnits="userSpaceOnUse"><stop offset="0.12" stop-color="#ffce00"/><stop offset="0.39" stop-color="#fec605"/><stop offset="0.81" stop-color="#fbb112"/><stop offset="1" stop-color="#f9a519"/></linearGradient><linearGradient xlink:href="#a" id="w" x1="8134.45" x2="5539.89" y1="3864.67" y2="2674.58"/><linearGradient id="e" x1="7609.42" x2="7066.39" y1="1876.65" y2="5521.34" gradientUnits="userSpaceOnUse"><stop offset="0.12" stop-color="#ffda00"/><stop offset="0.39" stop-color="#fed204"/><stop offset="0.8" stop-color="#fcbd0e"/><stop offset="1" stop-color="#fbb015"/></linearGradient><linearGradient xlink:href="#b" id="x" x1="2884.08" x2="2012.13" y1="5850.69" y2="4122.34"/><linearGradient xlink:href="#e" id="z" x1="7353.75" x2="6810.73" y1="1838.59" y2="5483.26"/><radialGradient id="d" cx="1100.42" cy="4758.94" r="188.49" gradientUnits="userSpaceOnUse"><stop offset="0" stop-color="#fff"/><stop offset="1" stop-color="#0066b2"/></radialGradient><radialGradient xlink:href="#d" id="y" cx="3268.9" cy="4239.15" r="188.53"/><radialGradient xlink:href="#d" id="A" cx="7922.44" cy="4768.1" r="187.95"/><radialGradient xlink:href="#d" id="B" cx="5775.09" cy="4192.99" r="187.95"/></defs><path d="M6505.74 5494.89s995.44-84.05 1818.82 540.57c230 174.27-28.09 428.55-281.29 292.05-253.46-136.85-889.59-664.95-1405.82-599.14Z" style="fill:url(#a)"/><path d="M6581.35 6295.86s-115.54 802.28-404.93 1073.66c-289 271.42 621.86 284 694.18-86.13 72.51-370.36 28.85-1111 28.85-1111Z" style="fill:url(#f)"/><path d="M7310.65 6371.06s301.41 842.15 665.86 1127c364.28 285-589.26 298-747.94-90.61-159-388.6-279.32-1165.94-279.32-1165.94Z" style="fill:url(#g)"/><path d="M7152.05 5627s-962.13 269.1-1887.73-190.33c-258.86-128.49-52.94-426.47 221.52-339.57S6484 5583.53 6979 5422.39Z" style="fill:url(#h)"/><path d="M7558.38 6419.58c33.7 279.23-246.27 333.91-594.58 376-348.47 42.15-636.55 30.56-667.4-223.47-43.77-361.71 337.88-1225.78 489.81-1244.08 151.54-18.31 728.39 729.77 772.17 1091.55Z" style="fill:url(#i)"/><path d="M2003.79 6289.43s-346.93 858-731.94 1148.48c-384.86 290.3 586.12 303.6 766.33-92.27 180.54-396.33 340.08-1188.28 340.08-1188.28Z" style="fill:url(#j)"/><path d="M2793.28 6281.33s116 804.31 406.15 1076.95c290.05 272.16-623.65 284.6-696.31-86.56-72.4-371.48-29-1114.36-29-1114.36Z" style="fill:url(#k)"/><path d="M2676.1 5383.55s-1001.63 29.29-1751.23 744.89c-209.77 200.35 76.37 424.33 313.39 259.43s811.16-763.64 1333.07-756.51Z" style="fill:url(#l)"/><path d="M2221.6 5586.87s991.5 282.66 1949-186.48c267.74-131.4 56.69-439.88-226.8-351.84-283.63 88.36-1032.66 497.14-1542.38 328Z" style="fill:url(#m)"/><path d="M3051.8 6308.9c-10.85 229.49-296.87 232.57-648.51 215.56-351.7-16.75-635.07-67.7-625-276.32 14.12-297 529.29-936 682.43-928.66S3066 6012 3051.8 6308.9Z" style="fill:url(#n)"/><path d="M1310.78 329.41c63.42-96.52-57.9 621.94 37.94 877.05 7.9 21.27 111.7-32.82 133-40.72a41.37 41.37 0 0 0 24.14-53.08c-91-242-137.44-485-137.53-487.21-.91-22.86 16.84-18.75-5.82-17.92s-64.11-259.11-51.73-278.12Z" style="fill:#0066b2"/><path d="M1794.33 255.52c-11-23.66-39.21-38.1-69.86-36.36l-259.06 16.24c-25.8-55-93-199.07-93-199.07-10.93-23.48-39-38.12-69.78-36.15s-56.72 19.92-64.73 44.72c0 0-48.81 151.29-67.36 209-71.64 4.43-259.17 16.33-259.17 16.33-30.6 1.91-56.79 19.78-64.73 44.49a52.79 52.79 0 0 0-2.28 18.49c1.11 18.44 12.75 35.45 32.16 45.47 0 0 157.46 81.8 217.5 113-18.54 57.74-67.29 209-67.29 209a49.57 49.57 0 0 0-2.26 18.36c1.11 18.29 12.62 35.53 32.08 45.6 25.77 13.36 59.36 11.21 83.22-5.39 0 0 145.93-100.63 201.61-139C1401.65 651.4 1558.94 733 1558.94 733c25.82 13.53 59.36 11.42 83.22-5.16 18-12.39 27.37-30.8 26.29-49.32a53.22 53.22 0 0 0-4.6-17.7s-67.27-144.18-92.93-199c55.83-38.58 201.81-139.36 201.81-139.36 18-12.27 27.28-30.68 26.11-49.23a46.1 46.1 0 0 0-4.51-17.71Z" style="fill:url(#o)"/><path d="M2414.5 1757.63c122.52-97.61 205.83-216.31 265.05-348.19-383.89-288-835.3-447.84-1255.89-343.53-424.08 105-755.05 459.58-968.16 888.9 479.84 694.94 1475.05 158.54 1959-197.18Z" style="fill:url(#p)"/><path d="M2577.72 1338.92c-130.16-33.19-273.07-59.19-273.07-59.19L2453.38 1427c-60.74-16.92-301.56-22.46-301.56-22.46l-89.67-111c-183.94-31.28-384.74-2.12-384.74-2.12l80.11 150.84c-124.89 4.94-427.52 108.91-427.52 108.91L1310.58 1392c-78.88 12.52-323.73 146.23-323.73 146.23-13.87 79.6-13.55 155.11-13.55 155.11-85.1 39.33-290.08 183-290.08 183-4.17-43.21 19.52-181.23 19.52-181.23-77.4 40.36-183.11 157.8-210.48 189.14C17 2834-106.73 4298.78 89.14 5115.59c130.23 543.31 1213 693.38 2418.92 404.24 1206.2-289.11 2078.55-907.73 1948.35-1451.07-193.27-806.29-1000.12-2103.99-1878.69-2729.84Z" style="fill:url(#q)"/><path d="m2437.05 3843.12-659.01 157.96-261.86-1892.32 296.27-70.99 624.6 1805.35z" style="fill:url(#b)"/><path d="m1828.29 2550.09-85.55 20.49-169.25-810.01 38.45-9.36 216.35 798.88z" style="fill:url(#r)"/><path d="m1733.37 4398.96-554.44 132.91 95.38-1838.51 248.98-59.73 210.08 1765.33z" style="fill:url(#s)"/><path d="m2659.29 4177.03 554.3-132.79-918.44-1595.49-249.18 59.73 613.32 1668.55z" style="fill:url(#t)"/><path d="M7966.81 1152.18s237.45-452.44-730.42-928.4c0 0 10.61 720.55 730.42 928.4Z" style="fill:url(#c)"/><path d="M7976.83 1154.89s20.26-510.57 1096.55-439.08c0 0-369.27 618.77-1096.55 439.08Z" style="fill:url(#u)"/><path d="M8430.64 2187c154.06-27.17 284-91.9 398.87-179.6-200.17-436.2-520.73-791.89-940.19-900.69-422.76-109.88-882.76 43.87-1274.84 319.79C6705 2266 7835.59 2268.89 8430.64 2187Z" style="fill:url(#v)"/><path d="M8773.54 1896.82c-98.43-91.3-211.79-182.23-211.79-182.23l60.56 200.29c-45.43-43.86-254.37-163.3-254.37-163.3l-26-140.25c-146.64-115.38-337.29-185.5-337.29-185.5l-1.43 170.86c-111.87-55.37-427.67-108.2-427.67-108.2l59-149.17c-75.34-26.45-354.38-25.74-354.38-25.74-50 63.38-85.93 130-85.93 130-93.44-6.11-342.23 22.54-342.23 22.54 17-40 103.55-150.2 103.55-150.2-87.16-1.23-236.14 51.63-275.21 66.13-870.44 608.12-1677.57 1836.59-1895 2648.15-144.48 539.74 739.57 1159.03 1937.47 1479.8S8979 5731.86 9123.56 5192.05c214.59-800.85 123.89-2326.11-350.02-3295.23Z" style="fill:url(#w)"/><g style="opacity:.9"><path d="M472 2126.21c114.5-416.19 247.49 101.06 199.11 549 12 474.15 66.77 2323.3-412.76 2424.27C-125.57 5005.72-34.14 2952.83 472 2126.21Z" style="fill:#aae0f9;opacity:.04761904850602174"/><path d="M462 2189.21c109.76-399.06 237 94.5 189.7 529.82 10.1 460.38 58 2240.21-397.6 2330C-110.71 4954.2-22.62 2988.26 462 2189.21Z" style="fill:#aae0f9;opacity:.09523809603170369"/><path d="M451.89 2252.22c105-381.94 226.4 87.94 180.29 510.61 8.19 446.62 49.12 2157.17-382.43 2235.83-345.59-95.97-260.84-1974.97 202.14-2746.44Z" style="fill:#aae0f9;opacity:.14285714355738563"/><path d="M441.81 2315.22c100.29-364.81 215.87 81.38 170.89 491.41 6.28 432.85 40.3 2074-367.26 2141.6C-81 4851.18.43 3059.13 441.81 2315.22Z" style="fill:#aae0f9;opacity:.19047619108306757"/><path d="M431.74 2378.22c95.55-347.68 205.33 74.82 161.49 472.21 4.36 419.08 31.47 1990.93-352.1 2047.38C-66.11 4799.67 12 3094.56 431.74 2378.22Z" style="fill:#aae0f9;opacity:.2380952386087495"/><path d="M421.67 2441.23c90.8-330.56 194.79 68.25 152.08 453 2.45 405.32 22.64 1907.84-336.93 1953.16C-51.25 4748.15 23.47 3130 421.67 2441.23Z" style="fill:#aae0f9;opacity:.28571428613443145"/><path d="M411.6 2504.23c86.06-313.42 184.25 61.69 142.67 433.8.54 391.55 13.82 1824.75-321.77 1858.93C-36.38 4696.64 35 3165.42 411.6 2504.23Z" style="fill:#aae0f9;opacity:.3333333336601134"/><path d="M401.53 2567.23c81.32-296.29 173.71 55.14 133.26 414.6-1.37 377.78 5 1741.65-306.6 1764.71-249.71-101.41-181.68-1545.69 173.34-2179.31Z" style="fill:#aae0f9;opacity:.3809523811857954"/><path d="M391.45 2630.24c76.59-279.17 163.18 48.57 123.86 395.39-3.28 364-3.83 1658.56-291.43 1670.49C-6.65 4593.61 58 3236.28 391.45 2630.24Z" style="fill:#aae0f9;opacity:.42857142871147735"/><path d="M381.38 2693.24c71.85-262 152.64 42 114.46 376.2-5.2 350.24-12.66 1575.46-276.27 1576.26C8.21 4542.1 69.55 3271.71 381.38 2693.24Z" style="fill:#aae0f9;opacity:.4761904762371593"/><path d="M371.31 2756.25c67.11-244.92 142.1 35.44 105.05 357-7.11 336.47-21.48 1492.37-261.11 1482-192.17-104.66-134.18-1288.1 156.06-1839Z" style="fill:#aae0f9;opacity:.5238095237628413"/><path d="M361.24 2819.25c62.37-227.79 131.56 28.89 95.64 337.79-9 322.71-30.31 1409.27-245.94 1387.81-173-105.77-118.35-1202.27 150.3-1725.6Z" style="fill:#aae0f9;opacity:.5714285712885232"/><path d="M351.17 2882.25c57.63-210.66 121 22.33 86.23 318.59-10.93 308.94-39.13 1326.16-230.77 1293.59C52.81 4387.56 104.11 3378 351.17 2882.25Z" style="fill:#aae0f9;opacity:.6190476188142051"/><path d="M341.09 2945.26c52.9-193.53 110.48 15.76 76.83 299.38C405.08 3539.81 370 4487.73 202.32 4444c-134.65-107.95-86.69-1030.56 138.77-1498.74Z" style="fill:#aae0f9;opacity:.666666666339887"/><path d="M331 3008.26c48.16-176.4 99.94 9.2 67.43 280.18-14.76 281.41-56.78 1160-200.44 1105.14C82.54 4284.54 127.15 3448.87 331 3008.26Z" style="fill:#aae0f9;opacity:.7142857138655689"/><path d="M321 3071.26c43.42-159.27 89.4 2.64 58 261-16.67 267.64-65.61 1076.9-185.28 1010.92C97.4 4233 138.67 3484.3 321 3071.26Z" style="fill:#aae0f9;opacity:.7619047613912509"/><path d="M310.88 3134.27c38.67-142.15 78.86-3.92 48.61 241.77-18.58 253.87-74.43 993.81-170.11 916.69-77.11-111.22-39.18-772.99 121.5-1158.46Z" style="fill:#aae0f9;opacity:.8095238089169328"/><path d="M300.81 3197.27c33.93-125 68.32-10.48 39.2 222.57-20.49 240.11-83.25 910.72-154.94 822.47-57.94-112.31-23.35-687.14 115.74-1045.04Z" style="fill:#aae0f9;opacity:.8571428564426147"/><path d="M290.73 3260.27c29.2-107.89 57.79-17 29.8 203.37-22.4 226.34-92.08 827.63-139.77 728.25-38.76-113.41-7.52-601.29 109.97-931.62Z" style="fill:#aae0f9;opacity:.9047619039682966"/><path d="M280.66 3323.28c24.46-90.77 47.25-23.61 20.4 184.16C276.74 3720 200.15 4252 176.44 4141.47 156.86 4027 184.76 3626 280.66 3323.28Z" style="fill:#aae0f9;opacity:.9523809514939785"/><path d="M270.59 3386.28c19.72-73.63 36.71-30.16 11 165-26.23 198.81-109.73 661.44-109.45 539.8-.41-115.62 24.14-429.62 98.45-704.8Z" style="fill:#aae0f9"/></g><g style="opacity:.9"><path d="M6511.16 1577.35c295.27-314.69 171.79 204.79-79.83 578.46C6220.87 2581 5407.38 4242.36 4936 4108.32c-295.9-262.07 742-2035.57 1575.16-2530.97Z" style="fill:#aae0f9;opacity:.04761904850602174"/><path d="M6472.88 1628.39c283.1-301.75 165.52 194.08-79.2 557.09-205.73 412.14-993 2008.93-1438 1876.22-278.41-254.1 715.96-1952.24 1517.2-2433.31Z" style="fill:#aae0f9;opacity:.09523809603170369"/><path d="M6434.6 1679.44c270.92-288.82 159.25 183.36-78.57 535.71-201 399.07-962.1 1931.31-1380.62 1799.93-260.97-246.08 689.9-1868.91 1459.19-2335.64Z" style="fill:#aae0f9;opacity:.14285714355738563"/><path d="M6396.32 1730.48c258.74-275.88 153 172.64-77.93 514.35-196.28 386-931.18 1853.67-1323.29 1723.62-243.5-238.15 663.9-1785.57 1401.22-2237.97Z" style="fill:#aae0f9;opacity:.19047619108306757"/><path d="M6358 1781.52c246.56-262.94 146.72 161.93-77.3 493-191.55 372.91-900.25 1776.05-1265.95 1647.33-225.98-230.2 637.92-1702.25 1343.25-2140.33Z" style="fill:#aae0f9;opacity:.2380952386087495"/><path d="M6319.76 1832.56c234.38-250 140.45 151.22-76.67 471.61-186.82 359.84-869.32 1698.43-1208.61 1571-208.54-222.17 611.87-1618.86 1285.28-2042.61Z" style="fill:#aae0f9;opacity:.28571428613443145"/><path d="M6281.48 1883.6c222.2-237 134.18 140.5-76 450.25-182.09 346.76-838.4 1620.8-1151.27 1494.73C4863.11 3614.35 5640 2293 6281.48 1883.6Z" style="fill:#aae0f9;opacity:.3333333336601134"/><path d="M6243.2 1934.64c210-224.11 127.91 129.79-75.41 428.88C5990.42 2697.2 5360.32 3906.7 5073.86 3782c-173.59-206.3 559.84-1452.26 1169.34-1847.36Z" style="fill:#aae0f9;opacity:.3809523811857954"/><path d="M6204.92 1985.68c197.84-211.17 121.65 119.08-74.78 407.51-172.64 320.61-776.54 1465.56-1036.59 1342.15-156.11-198.29 533.83-1368.89 1111.37-1749.66Z" style="fill:#aae0f9;opacity:.42857142871147735"/><path d="M6166.64 2036.73c185.66-198.24 115.38 108.35-74.15 386.14-167.91 307.53-745.61 1387.93-979.24 1265.84-138.64-190.31 507.81-1285.55 1053.39-1651.98Z" style="fill:#aae0f9;opacity:.4761904762371593"/><path d="M6128.36 2087.77c173.48-185.29 109.11 97.64-73.52 364.77-163.18 294.46-714.68 1310.31-921.9 1189.55-121.17-182.34 481.79-1202.21 995.42-1554.32Z" style="fill:#aae0f9;opacity:.5238095237628413"/><path d="M6090.08 2138.81c161.3-172.35 102.84 86.93-72.89 343.4-158.45 281.38-683.76 1232.69-864.56 1113.26-103.69-174.37 455.78-1118.88 937.45-1456.66Z" style="fill:#aae0f9;opacity:.5714285712885232"/><path d="M6051.8 2189.85c149.12-159.41 96.57 76.21-72.26 322-153.72 268.3-652.83 1155.06-807.22 1037-86.21-166.4 429.77-1035.55 879.48-1359Z" style="fill:#aae0f9;opacity:.6190476188142051"/><path d="M6013.52 2240.89c136.94-146.47 90.31 65.5-71.63 300.67C5792.9 2796.79 5320 3619 5192 3502.22c-68.72-158.42 403.77-952.22 821.52-1261.33Z" style="fill:#aae0f9;opacity:.666666666339887"/><path d="M5975.24 2291.93c124.76-133.52 84 54.79-71 279.3-144.26 242.16-591 999.82-692.54 884.37-51.26-150.45 377.75-868.87 763.54-1163.67Z" style="fill:#aae0f9;opacity:.7142857138655689"/><path d="M5937 2343c112.58-120.59 77.77 44.06-70.37 257.93-139.54 229.08-560 922.18-635.2 808.06C5197.61 3266.5 5583.12 2623.44 5937 2343Z" style="fill:#aae0f9;opacity:.7619047613912509"/><path d="M5898.68 2394c100.4-107.65 71.5 33.35-69.74 236.56-134.81 216-529.12 844.56-577.86 731.77-16.3-134.48 325.72-702.18 647.6-968.33Z" style="fill:#aae0f9;opacity:.8095238089169328"/><path d="M5860.4 2445.06c88.22-94.71 65.23 22.64-69.1 215.19-130.09 202.93-498.2 766.94-520.53 655.48 1.17-126.53 299.71-618.86 589.63-870.67Z" style="fill:#aae0f9;opacity:.8571428564426147"/><path d="M5822.12 2496.1c76-81.77 59 11.93-68.47 193.83-125.36 189.85-467.27 689.31-463.18 579.17 18.64-118.55 273.69-535.52 531.65-773Z" style="fill:#aae0f9;opacity:.9047619039682966"/><path d="M5783.84 2547.14c63.86-68.82 52.7 1.21-67.84 172.46-120.63 176.78-436.34 611.69-405.84 502.88 36.12-110.58 247.67-452.19 473.68-675.34Z" style="fill:#aae0f9;opacity:.9523809514939785"/><path d="M5745.56 2598.18c51.68-55.88 46.43-9.5-67.21 151.09-115.9 163.7-405.41 534.07-348.5 426.59 53.6-102.61 221.66-368.86 415.71-577.68Z" style="fill:#aae0f9"/></g><g style="opacity:.9"><path d="M1268.42 5888.76c75.54-41 111.07-13.77-19.93 152.18-53 78.09-327.58 318-379 273.93-78.19-99.8 202.45-359.26 398.93-426.11Z" style="fill:#fff;opacity:.04761904850602174"/><path d="M1258.68 5896.55c72.43-39.33 106.12-12.9-19.78 146-51.79 75.48-316.35 306.11-364.51 263.33-73.58-95.73 195.16-344.44 384.29-409.33Z" style="fill:#fff;opacity:.09523809603170369"/><path d="M1248.94 5904.35c69.31-37.64 101.17-12.05-19.62 139.83-50.61 72.87-305.14 294.27-350 252.73-69-91.68 187.83-329.64 369.62-392.56Z" style="fill:#fff;opacity:.14285714355738563"/><path d="M1239.19 5912.14c66.21-35.94 96.23-11.18-19.45 133.67-49.44 70.25-293.93 282.42-335.5 242.12-64.41-87.62 180.52-314.83 354.95-375.79Z" style="fill:#fff;opacity:.19047619108306757"/><path d="M1229.45 5919.93c63.09-34.25 91.28-10.32-19.3 127.5-48.26 67.64-282.7 270.58-321 231.52-59.81-83.56 173.22-300.02 340.3-359.02Z" style="fill:#fff;opacity:.2380952386087495"/><path d="M1219.71 5927.72c60-32.55 86.34-9.45-19.14 121.34-47.09 65-271.49 258.72-306.48 220.91-55.25-79.51 165.91-285.21 325.62-342.25Z" style="fill:#fff;opacity:.28571428613443145"/><path d="M1210 5935.51c56.86-30.86 81.39-8.59-19 115.17-45.91 62.41-260.26 246.88-292 210.31-50.65-75.45 158.59-270.4 311-325.48Z" style="fill:#fff;opacity:.3333333336601134"/><path d="M1200.23 5943.3c53.75-29.16 76.44-7.72-18.83 109-44.74 59.8-249.05 235-277.46 199.71-46.08-71.39 151.25-255.6 296.29-308.71Z" style="fill:#fff;opacity:.3809523811857954"/><path d="M1190.49 5951.1c50.63-27.47 71.49-6.86-18.67 102.83-43.57 57.18-237.83 223.19-263 189.1-41.45-67.33 143.98-240.79 281.67-291.93Z" style="fill:#fff;opacity:.42857142871147735"/><path d="M1180.75 5958.89c47.52-25.78 66.54-6-18.52 96.66-42.38 54.57-226.61 211.34-248.44 178.5-36.91-63.28 136.62-225.98 266.96-275.16Z" style="fill:#fff;opacity:.4761904762371593"/><path d="M1171 5966.68c44.41-24.08 61.6-5.13-18.35 90.5-41.21 51.94-215.39 199.49-233.94 167.89-32.33-59.22 129.29-211.17 252.29-258.39Z" style="fill:#fff;opacity:.5238095237628413"/><path d="M1161.26 5974.47c41.3-22.39 56.65-4.27-18.2 84.33-40 49.33-204.17 187.65-219.42 157.29-27.75-55.16 121.99-196.36 237.62-241.62Z" style="fill:#fff;opacity:.5714285712885232"/><path d="M1151.52 5982.26c38.18-20.69 51.71-3.4-18 78.16-38.86 46.72-193 175.81-204.92 146.69-23.2-51.11 114.63-181.55 222.92-224.85Z" style="fill:#fff;opacity:.6190476188142051"/><path d="M1141.78 5990.05c35.07-19 46.76-2.54-17.88 72-37.69 44.1-181.74 163.95-190.41 136.08-18.58-47.05 107.35-166.74 208.29-208.08Z" style="fill:#fff;opacity:.666666666339887"/><path d="M1132 5997.85c32-17.31 41.81-1.68-17.73 65.82-36.51 41.49-170.51 152.11-175.9 125.48-13.95-42.99 100.08-151.93 193.63-191.3Z" style="fill:#fff;opacity:.7142857138655689"/><path d="M1122.3 6005.64c28.84-15.61 36.86-.82-17.57 59.66-35.33 38.87-159.3 140.26-161.39 114.87-9.41-38.93 92.72-137.12 178.96-174.53Z" style="fill:#fff;opacity:.7619047613912509"/><path d="M1112.55 6013.43c25.73-13.92 31.92 0-17.41 53.49-34.15 36.26-148.07 128.42-146.88 104.26-4.83-34.86 85.41-122.31 164.29-157.75Z" style="fill:#fff;opacity:.8095238089169328"/><path d="M1102.81 6021.22c22.62-12.22 27 .92-17.25 47.32-33 33.65-136.86 116.57-132.37 93.66-.25-30.8 78.08-107.5 149.62-140.98Z" style="fill:#fff;opacity:.8571428564426147"/><path d="M1093.07 6029c19.5-10.52 22 1.78-17.09 41.16-31.81 31-125.64 104.72-117.87 83.05 4.34-26.74 70.77-92.68 134.96-124.21Z" style="fill:#fff;opacity:.9047619039682966"/><path d="M1083.33 6036.8c16.39-8.83 17.07 2.65-16.94 35-30.63 28.42-114.42 92.88-103.35 72.45 8.96-22.7 63.45-77.89 120.29-107.45Z" style="fill:#fff;opacity:.9523809514939785"/><path d="M1073.59 6044.6c13.27-7.14 12.13 3.5-16.78 28.82-29.46 25.8-103.2 81-88.85 61.84 13.51-18.63 56.14-63.07 105.63-90.66Z" style="fill:#fff"/></g><g style="opacity:.9"><path d="M5818.71 5271.81c77.52 37.06 76.43 81.94-134.84 73.55-94.38 3.07-449.82-78.08-444.55-145.53 34.94-122.01 409.73-47.39 579.39 71.98Z" style="fill:#fff;opacity:.04761904850602174"/><path d="M5806.67 5268.52c74.33 35.54 72.83 78.44-129.75 70-91.57 2.47-433.64-76-427.43-140 34.34-115.9 393.43-44.6 557.18 70Z" style="fill:#fff;opacity:.09523809603170369"/><path d="M5794.64 5265.23c71.13 34 69.22 74.93-124.67 66.54-88.76 1.89-417.45-73.86-410.32-134.54 33.75-109.81 377.15-41.83 534.99 68Z" style="fill:#fff;opacity:.14285714355738563"/><path d="M5782.6 5261.94c67.94 32.48 65.62 71.42-119.58 63-86 1.3-401.27-71.75-393.2-129 33.18-103.71 360.86-39.06 512.78 66Z" style="fill:#fff;opacity:.19047619108306757"/><path d="M5770.56 5258.65c64.75 31 62 67.92-114.48 59.52-83.16.72-385.1-69.63-376.1-123.54 32.55-97.63 344.57-36.27 490.58 64.02Z" style="fill:#fff;opacity:.2380952386087495"/><path d="M5758.53 5255.36c61.55 29.43 58.42 64.41-109.4 56-80.35.13-368.92-67.52-359-118 31.97-91.52 328.3-33.52 468.4 62Z" style="fill:#fff;opacity:.28571428613443145"/><path d="M5746.49 5252.07c58.36 27.9 54.82 60.9-104.31 52.51-77.55-.46-352.74-65.41-341.86-112.55 31.35-85.39 311.99-30.71 446.17 60.04Z" style="fill:#fff;opacity:.3333333336601134"/><path d="M5734.45 5248.78c55.17 26.38 51.23 57.4-99.21 49-74.75-1.05-336.56-63.29-324.76-107.05 30.76-79.28 295.7-27.93 423.97 58.05Z" style="fill:#fff;opacity:.3809523811857954"/><path d="M5722.42 5245.49c52 24.85 47.62 53.89-94.13 45.49-71.95-1.63-320.38-61.18-307.64-101.55 30.16-73.18 279.41-25.14 401.77 56.06Z" style="fill:#fff;opacity:.42857142871147735"/><path d="M5710.38 5242.2c48.78 23.32 44 50.38-89 42-69.14-2.22-304.2-59.06-290.53-96 29.53-67.15 263.08-22.43 379.53 54Z" style="fill:#fff;opacity:.4761904762371593"/><path d="M5698.34 5238.91c45.6 21.8 40.43 46.88-83.95 38.47-66.33-2.8-288-56.95-273.41-90.54 29.02-60.98 246.83-19.59 357.36 52.07Z" style="fill:#fff;opacity:.5238095237628413"/><path d="M5686.3 5235.62c42.41 20.27 36.83 43.37-78.85 35-63.54-3.4-271.85-54.84-256.31-85.05 28.38-54.91 230.55-16.84 335.16 50.05Z" style="fill:#fff;opacity:.5714285712885232"/><path d="M5674.27 5232.33c39.21 18.74 33.22 39.86-73.77 31.46-60.73-4-255.66-52.73-239.19-79.55 27.78-48.77 214.25-14.03 312.96 48.09Z" style="fill:#fff;opacity:.6190476188142051"/><path d="M5662.23 5229c36 17.22 29.63 36.36-68.68 27.95-57.92-4.57-239.48-50.61-222.08-74.05 27.18-42.63 197.97-11.21 290.76 46.1Z" style="fill:#fff;opacity:.666666666339887"/><path d="M5650.19 5225.75c32.83 15.69 26 32.85-63.59 24.44-55.12-5.15-223.3-48.5-205-68.55 26.62-36.56 181.71-8.47 268.59 44.11Z" style="fill:#fff;opacity:.7142857138655689"/><path d="M5638.16 5222.46c29.63 14.17 22.42 29.34-58.5 20.93-52.32-5.74-207.13-46.38-187.86-63.05 25.99-30.46 165.39-5.69 246.36 42.12Z" style="fill:#fff;opacity:.7619047613912509"/><path d="M5626.12 5219.17c26.44 12.64 18.82 25.84-53.41 17.43-49.51-6.33-190.95-44.28-170.74-57.56 25.39-24.36 149.1-2.9 224.15 40.13Z" style="fill:#fff;opacity:.8095238089169328"/><path d="M5614.08 5215.88c23.25 11.11 15.23 22.33-48.32 13.92-46.71-6.92-174.76-42.16-153.62-52.06 24.79-18.25 132.8-.12 201.94 38.14Z" style="fill:#fff;opacity:.8571428564426147"/><path d="M5602.05 5212.59c20.05 9.59 11.62 18.82-43.24 10.41-43.9-7.5-158.58-40-136.51-46.56 24.2-12.15 116.52 2.66 179.75 36.15Z" style="fill:#fff;opacity:.9047619039682966"/><path d="M5590 5209.3c16.86 8.06 8 15.32-38.14 6.9-41.1-8.08-142.41-37.93-119.4-41.06 23.61-6.04 100.24 5.44 157.54 34.16Z" style="fill:#fff;opacity:.9523809514939785"/><path d="M5578 5206c13.67 6.53 4.43 11.81-33.05 3.39-38.3-8.67-126.23-35.81-102.29-35.56 22.98.07 83.91 8.23 135.34 32.17Z" style="fill:#fff"/></g><g style="opacity:.9"><path d="M1450.32 7291.18c50.38-26 166.46 51.2 96.29 163.17-26.32 53.28-275.06 172.06-322.35 139.34-78.09-73.38 87.88-262.55 226.06-302.51Z" style="fill:#fff;opacity:.04761904850602174"/><path d="M1444.38 7297.08c48.31-24.9 158.63 48.78 91.1 156-25.9 51.47-264.53 166.11-309.07 134.38-73.83-70.34 85.06-251.55 217.97-290.38Z" style="fill:#fff;opacity:.09523809603170369"/><path d="M1438.45 7303c46.23-23.85 150.79 46.35 85.9 148.81-25.47 49.67-254 160.18-295.8 129.43-69.55-67.31 82.25-240.57 209.9-278.24Z" style="fill:#fff;opacity:.14285714355738563"/><path d="M1432.52 7308.89c44.15-22.78 143 43.93 80.7 141.63-25 47.87-243.45 154.24-282.52 124.48-65.31-64.26 79.43-229.56 201.82-266.11Z" style="fill:#fff;opacity:.19047619108306757"/><path d="M1426.58 7314.79c42.08-21.72 135.13 41.51 75.51 134.45-24.63 46.07-232.92 148.3-269.24 119.52-61.06-61.21 76.61-218.55 193.73-253.97Z" style="fill:#fff;opacity:.2380952386087495"/><path d="M1420.65 7320.7c40-20.66 127.3 39.08 70.31 127.27-24.2 44.26-222.38 142.35-256 114.56-56.77-58.17 73.83-207.53 185.69-241.83Z" style="fill:#fff;opacity:.28571428613443145"/><path d="M1414.72 7326.6c37.93-19.6 119.46 36.66 65.11 120.09-23.78 42.46-211.85 136.41-242.68 109.61-52.55-55.13 70.97-196.56 177.57-229.7Z" style="fill:#fff;opacity:.3333333336601134"/><path d="M1408.78 7332.5c35.86-18.53 111.64 34.23 59.92 112.91-23.36 40.66-201.31 130.47-229.4 104.66-48.3-52.07 68.15-185.56 169.48-217.57Z" style="fill:#fff;opacity:.3809523811857954"/><path d="M1402.85 7338.41c33.78-17.48 103.8 31.8 54.73 105.72-22.94 38.85-190.78 124.53-216.13 99.7-44.05-49.04 65.33-174.55 161.4-205.42Z" style="fill:#fff;opacity:.42857142871147735"/><path d="M1396.92 7344.31c31.7-16.41 96 29.38 49.53 98.55-22.52 37-180.25 118.58-202.85 94.74-39.79-46 62.51-163.55 153.32-193.29Z" style="fill:#fff;opacity:.4761904762371593"/><path d="M1391 7350.21c29.63-15.35 88.14 27 44.34 91.37-22.1 35.24-169.71 112.64-189.58 89.79-35.55-42.96 59.68-152.56 145.24-181.16Z" style="fill:#fff;opacity:.5238095237628413"/><path d="M1385.05 7356.12c27.55-14.29 80.3 24.53 39.14 84.18-21.67 33.44-159.18 106.7-176.3 84.84-31.27-39.92 56.88-141.56 137.16-169.02Z" style="fill:#fff;opacity:.5714285712885232"/><path d="M1379.12 7362c25.47-13.22 72.47 22.11 33.94 77-21.25 31.64-148.64 100.76-163 79.88C1223 7482 1304.1 7388.35 1379.12 7362Z" style="fill:#fff;opacity:.6190476188142051"/><path d="M1373.18 7367.93c23.4-12.17 64.64 19.68 28.75 69.82-20.83 29.83-138.1 94.81-149.74 74.92-22.77-33.83 51.24-119.55 120.99-144.74Z" style="fill:#fff;opacity:.666666666339887"/><path d="M1367.25 7373.83c21.32-11.1 56.81 17.26 23.55 62.64-20.4 28-127.57 88.87-136.46 70-18.51-30.82 48.42-108.59 112.91-132.64Z" style="fill:#fff;opacity:.7142857138655689"/><path d="M1361.32 7379.73c19.25-10 49 14.84 18.35 55.46-20 26.23-117 82.93-123.18 65-14.26-27.73 45.6-97.54 104.83-120.46Z" style="fill:#fff;opacity:.7619047613912509"/><path d="M1355.38 7385.64c17.18-9 41.14 12.41 13.16 48.27-19.56 24.43-106.5 77-109.9 60.07-10-24.71 42.78-86.56 96.74-108.34Z" style="fill:#fff;opacity:.8095238089169328"/><path d="M1349.45 7391.54c15.1-7.92 33.31 10 8 41.1-19.13 22.61-96 71-96.62 55.1-5.83-21.66 39.92-75.55 88.62-96.2Z" style="fill:#fff;opacity:.8571428564426147"/><path d="M1343.52 7397.44c13-6.85 25.47 7.57 2.76 33.92-18.71 20.81-85.42 65.11-83.35 50.15-1.49-18.62 37.15-64.51 80.59-84.07Z" style="fill:#fff;opacity:.9047619039682966"/><path d="M1337.58 7403.35c11-5.8 17.65 5.13-2.42 26.73-18.29 19-74.9 59.17-70.08 45.2 2.77-15.58 34.33-53.56 72.5-71.93Z" style="fill:#fff;opacity:.9523809514939785"/><path d="M1331.65 7409.25c8.87-4.73 9.81 2.71-7.62 19.55-17.87 17.21-64.36 53.23-56.8 40.25 7.02-12.54 31.51-42.56 64.42-59.8Z" style="fill:#fff"/></g><g style="opacity:.9"><path d="M6377.57 7227.54c50.35-26 166.44 51.15 96.24 163.23-26.3 53.19-275.11 172-322.35 139.23-78.08-73.39 87.94-262.5 226.11-302.46Z" style="fill:#fff;opacity:.04761904850602174"/><path d="M6371.64 7233.44c48.26-24.95 158.6 48.73 91 156.05-25.88 51.38-264.57 166.11-309.07 134.28-73.79-70.35 85.16-251.5 218.07-290.33Z" style="fill:#fff;opacity:.09523809603170369"/><path d="M6365.7 7239.34c46.19-23.88 150.77 46.31 85.85 148.87-25.46 49.58-254 160.17-295.8 129.33-69.57-67.31 82.31-240.54 209.95-278.2Z" style="fill:#fff;opacity:.14285714355738563"/><path d="M6359.77 7245.24c44.1-22.81 142.93 43.89 80.65 141.69-25 47.78-243.48 154.23-282.52 124.38-65.31-64.31 79.49-229.5 201.87-266.07Z" style="fill:#fff;opacity:.19047619108306757"/><path d="M6353.83 7251.14c42-21.74 135.11 41.47 75.46 134.52-24.62 46-232.94 148.28-269.24 119.42-61.05-61.23 76.67-218.5 193.78-253.94Z" style="fill:#fff;opacity:.2380952386087495"/><path d="M6347.9 7257c39.94-20.67 127.27 39.05 70.26 127.34-24.2 44.17-222.4 142.34-256 114.47-56.76-58.15 73.89-207.46 185.74-241.81Z" style="fill:#fff;opacity:.28571428613443145"/><path d="M6342 7262.94c37.87-19.6 119.44 36.63 65.07 120.16-23.78 42.36-211.86 136.39-242.69 109.52-52.58-55.15 71.01-196.5 177.62-229.68Z" style="fill:#fff;opacity:.3333333336601134"/><path d="M6336 7268.84c35.78-18.53 111.61 34.22 59.87 113-23.36 40.56-201.31 130.45-229.41 104.57-48.26-52.13 68.26-185.52 169.54-217.57Z" style="fill:#fff;opacity:.3809523811857954"/><path d="M6330.09 7274.74c33.7-17.46 103.78 31.8 54.69 105.81-22.95 38.75-190.78 124.5-216.14 99.61-44.03-49.07 65.41-174.5 161.45-205.42Z" style="fill:#fff;opacity:.42857142871147735"/><path d="M6324.16 7280.64c31.62-16.39 95.94 29.38 49.49 98.63-22.53 36.95-180.24 118.56-202.87 94.66-39.78-46.03 62.6-163.5 153.38-193.29Z" style="fill:#fff;opacity:.4761904762371593"/><path d="M6318.22 7286.54c29.54-15.32 88.12 27 44.3 91.45-22.11 35.14-169.7 112.62-189.59 89.71-35.52-42.99 59.78-152.5 145.29-181.16Z" style="fill:#fff;opacity:.5238095237628413"/><path d="M6312.29 7292.45c27.46-14.25 80.28 24.53 39.1 84.26-21.69 33.34-159.15 106.67-176.31 84.76-31.26-39.95 56.92-141.47 137.21-169.02Z" style="fill:#fff;opacity:.5714285712885232"/><path d="M6306.35 7298.35c25.38-13.18 72.45 22.11 33.91 77.09-21.27 31.53-148.61 100.72-163 79.8-27.04-36.91 54.11-130.5 129.09-156.89Z" style="fill:#fff;opacity:.6190476188142051"/><path d="M6300.42 7304.25c23.3-12.11 64.61 19.7 28.71 69.91-20.85 29.73-138.07 94.78-149.76 74.85-22.74-33.87 51.34-119.5 121.05-144.76Z" style="fill:#fff;opacity:.666666666339887"/><path d="M6294.48 7310.15c21.22-11 56.79 17.28 23.52 62.73-20.43 27.93-127.52 88.84-136.48 69.9-18.52-30.78 48.48-108.5 112.96-132.63Z" style="fill:#fff;opacity:.7142857138655689"/><path d="M6288.55 7316.05c19.13-10 48.95 14.86 18.32 55.55-20 26.12-117 82.9-123.2 64.95-14.24-27.79 45.7-97.5 104.88-120.5Z" style="fill:#fff;opacity:.7619047613912509"/><path d="M6282.61 7322c17.06-8.9 41.12 12.44 13.13 48.38-19.6 24.31-106.44 76.94-109.93 60-9.97-24.81 42.89-86.56 96.8-108.38Z" style="fill:#fff;opacity:.8095238089169328"/><path d="M6276.68 7327.85c15-7.83 33.29 10 7.93 41.2-19.18 22.51-95.9 71-96.65 55-5.72-21.67 40.04-75.46 88.72-96.2Z" style="fill:#fff;opacity:.8571428564426147"/><path d="M6270.74 7333.75c12.9-6.76 25.46 7.6 2.74 34-18.76 20.71-85.35 65.06-83.37 50.09-1.46-18.65 37.25-64.48 80.63-84.09Z" style="fill:#fff;opacity:.9047619039682966"/><path d="M6264.81 7339.65c10.81-5.69 17.62 5.19-2.46 26.84-18.34 18.9-74.81 59.12-70.09 45.14 2.79-15.63 34.43-53.5 72.55-71.98Z" style="fill:#fff;opacity:.9523809514939785"/><path d="M6258.87 7345.55c8.74-4.62 9.79 2.77-7.65 19.67-17.92 17.09-64.27 53.17-56.82 40.18 7.05-12.58 31.6-42.5 64.47-59.85Z" style="fill:#fff"/></g><g style="opacity:.9"><path d="M2051.63 5707.69c86.51-111.17 219.53-111.92 258.53 186.51 37.93 132.84-95.71 638.29-297.29 634.18-372.54-43.22-264.87-575.38 38.76-820.69Z" style="fill:#fff;opacity:.04761904850602174"/><path d="M2045.51 5724.84c82.91-106.61 210.22-106.67 246.58 179.51 35.34 128.91-94.33 615.37-286.16 609.76-354.25-42.67-251.64-552.58 39.58-789.27Z" style="fill:#fff;opacity:.09523809603170369"/><path d="M2039.38 5742c79.33-102 200.92-101.4 234.64 172.51 32.74 125-92.95 592.45-275 585.35-336.02-42.15-238.46-529.78 40.36-757.86Z" style="fill:#fff;opacity:.14285714355738563"/><path d="M2033.26 5759.12c75.74-97.45 191.61-96.12 222.74 165.52 30.15 121.07-91.57 569.52-263.88 560.93-317.74-41.57-225.3-506.93 41.14-726.45Z" style="fill:#fff;opacity:.19047619108306757"/><path d="M2027.14 5776.26c72.14-92.88 182.3-90.88 210.73 158.52 27.56 117.15-90.17 546.61-252.73 536.52-299.4-41.04-212.06-484.11 42-695.04Z" style="fill:#fff;opacity:.2380952386087495"/><path d="M2021 5793.4c68.55-88.3 173-85.62 198.79 151.53 25 113.23-88.79 523.68-241.6 512.1-281.1-40.5-198.84-461.28 42.81-663.63Z" style="fill:#fff;opacity:.28571428613443145"/><path d="M2014.89 5810.54c65-83.73 163.69-80.35 186.84 144.53 22.37 109.31-87.41 500.76-230.46 487.69-262.83-39.95-185.66-438.46 43.62-632.22Z" style="fill:#fff;opacity:.3333333336601134"/><path d="M2008.76 5827.68c61.37-79.15 154.39-75.09 174.9 137.54 19.78 105.38-86 477.84-219.32 463.27-244.55-39.41-172.46-415.63 44.42-600.81Z" style="fill:#fff;opacity:.3809523811857954"/><path d="M2002.64 5844.82c57.77-74.58 145.07-69.83 163 130.54 17.19 101.47-84.64 454.92-208.18 438.87-226.32-38.88-159.32-392.82 45.18-569.41Z" style="fill:#fff;opacity:.42857142871147735"/><path d="M1996.52 5862c54.18-70 135.76-64.56 151 123.55 14.59 97.54-83.26 432-197 414.45-208.02-38.37-146.12-370 46-538Z" style="fill:#fff;opacity:.4761904762371593"/><path d="M1990.39 5879.1c50.59-65.42 126.46-59.3 139.06 116.55 12 93.62-81.88 409.08-185.91 390-189.69-37.75-132.87-347.13 46.85-506.55Z" style="fill:#fff;opacity:.5238095237628413"/><path d="M1984.27 5896.24c47-60.85 117.15-54 127.11 109.56 9.4 89.7-80.5 386.15-174.77 365.62-171.41-37.25-119.68-324.34 47.66-475.18Z" style="fill:#fff;opacity:.5714285712885232"/><path d="M1978.15 5913.38c43.4-56.27 107.84-48.78 115.15 102.56 6.82 85.78-79.1 363.23-163.62 341.21-153.13-36.7-106.48-301.52 48.47-443.77Z" style="fill:#fff;opacity:.6190476188142051"/><path d="M1972 5930.52c39.82-51.7 98.54-43.51 103.21 95.57 4.23 81.85-77.72 340.31-152.49 316.79-134.82-36.16-93.26-278.69 49.28-412.36Z" style="fill:#fff;opacity:.666666666339887"/><path d="M1965.9 5947.66c36.22-47.12 89.23-38.25 91.26 88.58 1.63 77.93-76.34 317.38-141.35 292.37-116.55-35.61-80.09-255.87 50.09-380.95Z" style="fill:#fff;opacity:.7142857138655689"/><path d="M1959.77 5964.8c32.63-42.54 79.93-33 79.32 81.58-1 74-75 294.46-130.21 268-98.27-35.11-66.88-233.08 50.89-349.58Z" style="fill:#fff;opacity:.7619047613912509"/><path d="M1953.65 5981.94c29-38 70.62-27.73 67.37 74.59-3.56 70.08-73.58 271.54-119.07 243.55-79.95-34.54-53.7-210.23 51.7-318.14Z" style="fill:#fff;opacity:.8095238089169328"/><path d="M1947.53 5999.08c25.44-33.39 61.31-22.46 55.42 67.59-6.15 66.17-72.19 248.62-107.93 219.14-61.71-33.99-40.51-187.4 52.51-286.73Z" style="fill:#fff;opacity:.8571428564426147"/><path d="M1941.4 6016.22c21.86-28.82 52-17.2 43.48 60.6-8.74 62.24-70.81 225.69-96.8 194.72-43.42-33.45-27.3-164.54 53.32-255.32Z" style="fill:#fff;opacity:.9047619039682966"/><path d="M1935.28 6033.36c18.26-24.24 42.7-11.94 31.53 53.6-11.34 58.32-69.43 202.78-85.66 170.31-25.15-32.91-14.15-141.75 54.13-223.91Z" style="fill:#fff;opacity:.9523809514939785"/><path d="M1929.15 6050.5c14.68-19.66 33.4-6.68 19.59 46.61-13.93 54.4-68 179.85-74.52 145.89-6.85-32.36-.91-118.93 54.93-192.5Z" style="fill:#fff"/></g><g style="opacity:.9"><path d="M6556.78 5712.32c86.52-145.9 219.51-146.67 258.48 244.61 37.9 174.48-95.66 837.37-297.22 831.88-372.62-56.46-264.83-754.81 38.74-1076.49Z" style="fill:#fff;opacity:.04761904850602174"/><path d="M6550.66 5734.81c82.94-139.9 210.2-139.79 246.53 235.43 35.31 169.33-94.28 807.3-286.09 799.86-354.32-55.76-251.63-724.83 39.56-1035.29Z" style="fill:#fff;opacity:.09523809603170369"/><path d="M6544.53 5757.29c79.36-133.89 200.9-132.89 234.6 226.26 32.71 164.18-92.92 777.23-275 767.84-335.99-55.06-238.39-694.9 40.4-994.1Z" style="fill:#fff;opacity:.14285714355738563"/><path d="M6538.4 5779.77c75.78-127.88 191.61-126 222.66 217.09 30.12 159-91.54 747.16-263.83 735.81-317.74-54.35-225.23-664.96 41.17-952.9Z" style="fill:#fff;opacity:.19047619108306757"/><path d="M6532.28 5802.26c72.19-121.87 182.3-119.11 210.72 207.92 27.52 153.88-90.17 717.08-252.71 703.78-299.44-53.65-212.02-635.02 41.99-911.7Z" style="fill:#fff;opacity:.2380952386087495"/><path d="M6526.15 5824.74c68.62-115.86 173-112.21 198.79 198.75 24.92 148.73-88.8 687-241.58 671.76-281.16-52.95-198.82-605.09 42.79-870.51Z" style="fill:#fff;opacity:.28571428613443145"/><path d="M6520 5847.22c65-109.85 163.71-105.32 186.85 189.58 22.33 143.58-87.42 656.95-230.45 639.74-262.84-52.25-185.6-575.15 43.6-829.32Z" style="fill:#fff;opacity:.3333333336601134"/><path d="M6513.9 5869.7c61.45-103.84 154.4-98.42 174.91 180.41 19.73 138.43-86.05 626.88-219.33 607.72-244.56-51.55-172.41-545.22 44.42-788.13Z" style="fill:#fff;opacity:.3809523811857954"/><path d="M6507.77 5892.19c57.87-97.83 145.1-91.54 163 171.23 17.14 133.28-84.68 596.81-208.19 575.7-226.31-50.85-159.25-515.28 45.19-746.93Z" style="fill:#fff;opacity:.42857142871147735"/><path d="M6501.64 5914.67c54.29-91.82 135.81-84.64 151 162.07 14.54 128.12-83.31 566.73-197.07 543.67-207.94-50.15-145.97-485.35 46.07-705.74Z" style="fill:#fff;opacity:.4761904762371593"/><path d="M6495.52 5937.15c50.71-85.81 126.5-77.75 139.1 152.9 11.94 123-81.94 536.66-185.94 511.64-189.68-49.44-132.82-455.41 46.84-664.54Z" style="fill:#fff;opacity:.5238095237628413"/><path d="M6489.39 5959.63c47.13-79.8 117.2-70.85 127.16 143.73C6625.9 6221.18 6536 6610 6441.74 6583c-171.4-48.76-119.61-425.49 47.65-623.37Z" style="fill:#fff;opacity:.5714285712885232"/><path d="M6483.27 5982.12c43.54-73.8 107.9-64 115.22 134.55 6.75 112.67-79.19 476.53-163.69 447.6-153.1-48.04-106.41-395.54 48.47-582.15Z" style="fill:#fff;opacity:.6190476188142051"/><path d="M6477.14 6004.6c40-67.78 98.6-57.07 103.28 125.38 4.16 107.52-77.82 446.46-152.55 415.58-134.82-47.34-93.21-365.56 49.27-540.96Z" style="fill:#fff;opacity:.666666666339887"/><path d="M6471 6027.08c36.39-61.77 89.3-50.17 91.35 116.21 1.56 102.37-76.45 416.39-141.43 383.56-116.51-46.64-80-335.67 50.08-499.77Z" style="fill:#fff;opacity:.7142857138655689"/><path d="M6464.89 6049.57c32.8-55.77 80-43.29 79.4 107-1 97.22-75.07 386.31-130.3 351.53-98.22-45.9-66.8-305.69 50.9-458.53Z" style="fill:#fff;opacity:.7619047613912509"/><path d="M6458.76 6072.05c29.22-49.76 70.7-36.39 67.47 97.87-3.63 92.07-73.7 356.24-119.17 319.51-79.94-45.24-53.61-275.8 51.7-417.38Z" style="fill:#fff;opacity:.8095238089169328"/><path d="M6452.63 6094.53c25.64-43.74 61.4-29.5 55.54 88.7-6.23 86.92-72.33 326.18-108.05 287.48-61.64-44.53-40.4-245.86 52.51-376.18Z" style="fill:#fff;opacity:.8571428564426147"/><path d="M6446.51 6117c22.06-37.73 52.1-22.6 43.59 79.53-8.82 81.77-71 296.11-96.92 255.46-43.35-43.82-27.18-215.91 53.33-334.99Z" style="fill:#fff;opacity:.9047619039682966"/><path d="M6440.38 6139.5c18.48-31.73 42.8-15.72 31.66 70.35-11.42 76.62-69.59 266-85.79 223.44-25.06-43.13-14-185.99 54.13-293.79Z" style="fill:#fff;opacity:.9523809514939785"/><path d="M6434.25 6162c14.9-25.72 33.51-8.82 19.72 61.18-14 71.47-68.21 236-74.66 191.42-6.76-42.45-.8-156.07 54.94-252.6Z" style="fill:#fff"/></g><path d="M7815 1843.16s-938.24 119.84-992.06 597.51c-48.94 433.83 1322.47 740.44-327.39 1247.11l1304.76 341.36s380.61-200 407.09-506.13c72.72-840.12-1906.75-1058.25-392.39-1679.85Z" style="fill:url(#e)"/><path d="M4477.79 4157.77c116.76 486.74-766.49 1115.39-1972.56 1404.44S227.1 5691.38 110.43 5204.72C-6.13 4718.29 877 4089.62 2083 3800.54s2278.15-129.21 2394.79 357.23Z" style="fill:url(#x)"/><path d="M1408.79 4839.13c47.43 197.67-11.73 381.32-132 410.08-120.33 29.09-256.09-108-303.64-305.6-47.32-197.78 11.62-381.43 132-410.32s256.32 108.14 303.64 305.84Z" style="fill:url(#d)"/><path d="M3577.44 4319.39c47.35 197.64-11.81 381.23-132.25 410.14s-256.19-108.13-303.63-305.8 11.73-381.38 132-410.26c120.52-28.76 256.56 108.02 303.88 305.92Z" style="fill:url(#y)"/><path d="M3166.39 4715c-676.86 455.61-1616.93 390.05-1626.4 389.48a23 23 0 0 0-24.52 20.92 22.69 22.69 0 0 0 21 24.35c9.65.94 965.22 67.86 1655.37-396.93a22.8 22.8 0 1 0-25.48-37.82Z" style="fill:#00a550"/><path d="M9095.22 5243.82c-129.12 481.87-1201.93 613.12-2396.09 293.28-1194.37-319.93-2057.95-969.84-1929-1451.59 129.17-481.87 1202-613.1 2396.38-293.14 1194.23 319.88 2057.74 969.78 1928.71 1451.45Z" style="fill:url(#z)"/><path d="M8229.44 4957.37c-52.32 195.89-191.57 328.52-310.72 296.61s-173.35-216.47-120.95-412.14 191.67-328.84 310.89-296.79c119.03 31.95 173.23 216.6 120.78 412.32Z" style="fill:url(#A)"/><path d="M8329.78 4818.21 8154 4905a45.5 45.5 0 0 0-23.29 28.68 44 44 0 0 0 6 36.22l108.57 163.39a44.86 44.86 0 0 0 61.93 12.39 44 44 0 0 0 18.44-25.57 44.77 44.77 0 0 0-6-36.14s-49.8-75-80.65-121.32c49.92-24.57 130.31-64.41 130.31-64.41a44.51 44.51 0 0 0 20.12-59.91 44.51 44.51 0 0 0-59.65-20.12ZM5537.05 4074.29a44.54 44.54 0 0 0-12.34 61.9l80.6 121.09c-50 24.72-130.31 64.62-130.31 64.62a44.61 44.61 0 1 0 39.5 80l175.92-87.25a44.14 44.14 0 0 0 23.2-28.39 45.1 45.1 0 0 0-5.88-36.28l-108.82-163.16a44.48 44.48 0 0 0-61.87-12.53Z" style="fill:#0068b4"/><path d="M6645.1 4742.55c-54.08 201.63 21.66 397.76 168.59 437.26 147.23 39.36 310.83-92.81 364.74-294.44a29.91 29.91 0 1 0-57.77-15.53c-45.46 169.9-176.23 283.11-291.48 252.23s-171.77-194.3-126.4-364.08a29.86 29.86 0 1 0-57.68-15.44Z" style="fill:#f26f20"/><path d="M6082.13 4382.26c-52.55 195.73-191.79 328.52-311 296.59-118.9-31.91-173.12-216.39-120.73-412.26s191.68-328.58 310.72-296.67c119.24 31.88 173.43 216.48 121.01 412.34Z" style="fill:url(#B)"/></svg>